<svg width="25" height="26" viewBox="0 0 25 26" fill="none" xmlns="http://www.w3.org/2000/svg">
<g clip-path="url(#clip0_820_963)">
<path d="M20.4545 1.85714H19.3182C19.3182 0.835714 18.2955 0 17.0455 0H7.95455C6.70455 0 5.68182 0.835714 5.68182 1.85714H4.54545C2.03409 1.85714 0 3.51929 0 5.57143V22.2857C0 24.3379 2.03409 26 4.54545 26H20.4545C22.9659 26 25 24.3379 25 22.2857V5.57143C25 3.51929 22.9659 1.85714 20.4545 1.85714ZM7.95455 1.85714H17.0455V3.71429H7.95455V1.85714ZM22.7273 22.2857C22.7273 23.3071 21.7045 24.1429 20.4545 24.1429H4.54545C3.29545 24.1429 2.27273 23.3071 2.27273 22.2857V5.57143C2.27273 4.55 3.29545 3.71429 4.54545 3.71429H5.68182C5.68182 4.73571 6.70455 5.57143 7.95455 5.57143H17.0455C18.2955 5.57143 19.3182 4.73571 19.3182 3.71429H20.4545C21.7045 3.71429 22.7273 4.55 22.7273 5.57143V22.2857ZM4.54545 8.35714C4.54545 7.84643 5.05682 7.42857 5.68182 7.42857H12.5C13.125 7.42857 13.6364 7.84643 13.6364 8.35714C13.6364 8.86786 13.125 9.28571 12.5 9.28571H5.68182C5.05682 9.28571 4.54545 8.86786 4.54545 8.35714ZM20.4545 12.0714C20.4545 12.5821 19.9432 13 19.3182 13H5.68182C5.05682 13 4.54545 12.5821 4.54545 12.0714C4.54545 11.5607 5.05682 11.1429 5.68182 11.1429H19.3182C19.9432 11.1429 20.4545 11.5607 20.4545 12.0714ZM20.4545 15.7857C20.4545 16.2964 19.9432 16.7143 19.3182 16.7143H5.68182C5.05682 16.7143 4.54545 16.2964 4.54545 15.7857C4.54545 15.275 5.05682 14.8571 5.68182 14.8571H19.3182C19.9432 14.8571 20.4545 15.275 20.4545 15.7857ZM20.4545 19.5C20.4545 20.0107 19.9432 20.4286 19.3182 20.4286H5.68182C5.05682 20.4286 4.54545 20.0107 4.54545 19.5C4.54545 18.9893 5.05682 18.5714 5.68182 18.5714H19.3182C19.9432 18.5714 20.4545 18.9893 20.4545 19.5Z" fill="white"/>
</g>
<defs>
<clipPath id="clip0_820_963">
<rect width="25" height="26" fill="white"/>
</clipPath>
</defs>
</svg>
