<svg width="30" height="28" viewBox="0 0 30 28" fill="none" xmlns="http://www.w3.org/2000/svg">
<path d="M26.2196 4.34961L22.6496 0.773669C22.5416 0.659609 22.3916 0.599609 22.2296 0.599609H4.79961C4.13955 0.599609 3.59961 1.13955 3.59961 1.79961V28.1996C3.59961 28.8596 4.13955 29.3996 4.79961 29.3996H25.1996C25.8656 29.3996 26.3996 28.8596 26.3996 28.1996V4.78761C26.3996 4.61961 26.3336 4.46361 26.2196 4.34961ZM19.7996 25.4036H10.1996C9.86961 25.4036 9.59961 25.1395 9.59961 24.8096C9.59961 24.4797 9.86961 24.2096 10.1996 24.2096H19.7996C20.1296 24.2096 20.3996 24.4797 20.3996 24.8096C20.3996 25.1395 20.1296 25.4036 19.7996 25.4036ZM19.7996 22.7696H10.1996C9.86961 22.7696 9.59961 22.4996 9.59961 22.1696C9.59961 21.8337 9.86961 21.5756 10.1996 21.5756H19.7996C20.1296 21.5756 20.3996 21.8337 20.3996 22.1696C20.3996 22.4996 20.1296 22.7696 19.7996 22.7696ZM20.3996 18.6297C20.3996 18.9596 20.1296 19.2297 19.7996 19.2297H10.1996C9.86961 19.2297 9.59961 18.9596 9.59961 18.6297V9.06561C9.59961 8.73567 9.86961 8.46561 10.1996 8.46561H19.7996C20.1296 8.46561 20.3996 8.73567 20.3996 9.06561V18.6297ZM19.9916 6.96561V1.81167H21.2035V5.75361H25.1876V6.96561H19.9916ZM18.6836 11.0216C18.2156 10.5536 17.4535 10.5536 16.9856 11.0216L13.8596 14.1357L13.0136 13.2895C12.5456 12.8276 11.7836 12.8276 11.3156 13.2895C10.8476 13.7576 10.8476 14.5196 11.3156 14.9816L13.0136 16.6737C13.2476 16.9076 13.5535 17.0216 13.8596 17.0216C14.1656 17.0216 14.4776 16.9076 14.7116 16.6737L18.6836 12.7136C19.1516 12.2455 19.1516 11.4895 18.6836 11.0216Z" fill="white"/>
<path d="M26.2196 4.34961L22.6496 0.773669C22.5416 0.659609 22.3916 0.599609 22.2296 0.599609H4.79961C4.13955 0.599609 3.59961 1.13955 3.59961 1.79961V28.1996C3.59961 28.8596 4.13955 29.3996 4.79961 29.3996H25.1996C25.8656 29.3996 26.3996 28.8596 26.3996 28.1996V4.78761C26.3996 4.61961 26.3336 4.46361 26.2196 4.34961ZM19.7996 25.4036H10.1996C9.86961 25.4036 9.59961 25.1395 9.59961 24.8096C9.59961 24.4797 9.86961 24.2096 10.1996 24.2096H19.7996C20.1296 24.2096 20.3996 24.4797 20.3996 24.8096C20.3996 25.1395 20.1296 25.4036 19.7996 25.4036ZM19.7996 22.7696H10.1996C9.86961 22.7696 9.59961 22.4996 9.59961 22.1696C9.59961 21.8337 9.86961 21.5756 10.1996 21.5756H19.7996C20.1296 21.5756 20.3996 21.8337 20.3996 22.1696C20.3996 22.4996 20.1296 22.7696 19.7996 22.7696ZM20.3996 18.6297C20.3996 18.9596 20.1296 19.2297 19.7996 19.2297H10.1996C9.86961 19.2297 9.59961 18.9596 9.59961 18.6297V9.06561C9.59961 8.73567 9.86961 8.46561 10.1996 8.46561H19.7996C20.1296 8.46561 20.3996 8.73567 20.3996 9.06561V18.6297ZM19.9916 6.96561V1.81167H21.2035V5.75361H25.1876V6.96561H19.9916ZM18.6836 11.0216C18.2156 10.5536 17.4535 10.5536 16.9856 11.0216L13.8596 14.1357L13.0136 13.2895C12.5456 12.8276 11.7836 12.8276 11.3156 13.2895C10.8476 13.7576 10.8476 14.5196 11.3156 14.9816L13.0136 16.6737C13.2476 16.9076 13.5535 17.0216 13.8596 17.0216C14.1656 17.0216 14.4776 16.9076 14.7116 16.6737L18.6836 12.7136C19.1516 12.2455 19.1516 11.4895 18.6836 11.0216Z" fill="white"/>
</svg>
