<svg width="30" height="30" viewBox="0 0 30 30" fill="none" xmlns="http://www.w3.org/2000/svg">
<g clip-path="url(#clip0_492_1305)">
<path fill-rule="evenodd" clip-rule="evenodd" d="M24.141 18.2819C27.3708 18.2819 30.0002 20.8906 30.0002 24.1411C30.0002 27.3709 27.3708 30.0003 24.141 30.0003C20.8905 30.0003 18.2818 27.3709 18.2818 24.1411C18.2818 20.8906 20.8905 18.2819 24.141 18.2819ZM8.28177 10.7457H8.26106C8.07473 10.7043 7.9091 10.6214 7.78487 10.5386C7.66065 10.4351 7.59854 10.3109 7.49502 10.0624C7.4122 9.81399 7.30868 9.42061 7.22587 9.08935C7.14305 8.75809 7.10164 8.44753 7.08094 8.19908C7.06024 7.92993 7.08094 7.72289 7.14305 7.53656C7.20516 7.37093 7.3708 7.226 7.47432 7.20529C7.59854 7.16389 7.66065 7.18459 7.72276 7.16389C7.76417 7.16389 7.68135 7.12248 7.68135 7.10177L7.53643 5.1556C7.45361 4.26534 7.63995 2.98169 8.32318 2.36057C8.48881 2.21565 9.02711 2.13283 9.10993 2.19494C9.02711 2.02931 8.965 1.76016 9.17204 1.49101C9.37908 1.22186 9.83456 0.683555 10.3108 0.476516C11.0354 0.186661 11.8428 -0.0617866 12.6296 0.0210292C13.4992 0.103845 14.3687 0.455812 15.1141 0.932002C15.7145 1.30467 16.2321 1.86368 16.5633 2.4848C16.9153 3.14732 17.0188 3.85126 17.0809 4.65871C17.1638 5.42476 17.1016 6.37714 16.9774 7.16389C17.0602 7.16389 17.1431 7.18459 17.2259 7.226C17.3915 7.26741 17.5571 7.39163 17.6192 7.59867C17.7021 7.80571 17.6814 8.09556 17.6607 8.38542C17.6399 8.69598 17.5778 8.98583 17.5157 9.29639C17.4329 9.58625 17.3294 9.8968 17.2466 10.1038C17.1431 10.3316 17.0809 10.4558 16.9567 10.5386C16.8325 10.6421 16.6669 10.7043 16.4805 10.7664C16.4391 10.7664 16.3977 10.7871 16.3563 10.7871L16.2942 11.698C16.2735 12.2363 16.0664 12.6918 15.6938 13.0852V14.6587C15.6938 14.99 15.5696 15.2591 15.3004 15.4455L12.4226 17.5987L9.56541 15.4455C9.29626 15.2591 9.17204 14.99 9.17204 14.6587V13.313L8.9857 13.1266C8.59233 12.7125 8.38529 12.2571 8.34388 11.698L8.28177 10.7457ZM8.57162 14.9693C8.77866 15.9838 8.9857 16.9983 9.10993 17.8678C9.25485 18.7374 9.29626 19.4827 9.33767 20.2074C9.54471 19.7726 9.77245 19.3378 10.0002 19.0065C10.2279 18.696 10.4971 18.4682 10.7455 18.2612C11.0768 18.7581 11.4081 19.255 11.4909 19.5655C11.5944 19.8554 11.4495 19.9589 11.2631 21.0976C11.0975 22.2156 10.8905 24.3689 10.6834 26.5221C8.05403 26.5221 4.7621 26.5221 1.88425 26.5221C1.32525 26.5221 0.828353 26.2943 0.476386 25.8802C0.103715 25.4662 -0.061916 24.9486 0.0208997 24.3896C0.207235 22.961 0.414274 21.6359 0.683426 20.6421C1.11821 19.1515 1.67721 18.3647 2.58819 17.7436C3.49916 17.1432 5.77659 16.7291 6.66686 16.2943C7.53643 15.8595 8.05403 15.4041 8.57162 14.9693ZM16.3356 14.9693C16.1079 15.9838 15.9008 16.9983 15.7766 17.8678C15.6524 18.7374 15.5903 19.4827 15.5488 20.2074C15.3418 19.7726 15.1348 19.3378 14.8863 19.0065C14.6586 18.696 14.4101 18.4682 14.141 18.2612C13.8097 18.7581 13.4785 19.255 13.3956 19.5655C13.3128 19.8554 13.4578 19.9589 13.6234 21.0976C13.8097 22.2156 14.0168 24.3689 14.2238 26.5221H17.7642C17.495 25.7767 17.3501 24.9693 17.3501 24.1411C17.3501 21.0769 19.3584 18.5096 22.1327 17.6401C21.1182 17.1018 19.0478 16.6877 18.2404 16.2943C17.3708 15.8595 16.8532 15.4041 16.3356 14.9693ZM22.0085 22.6918C22.0085 21.6773 22.6917 20.9941 23.5199 20.7457C23.5613 20.7457 23.582 20.7043 23.582 20.6628V19.8968C23.582 19.814 23.6648 19.7312 23.7683 19.7312H24.4929C24.5965 19.7312 24.6793 19.814 24.6793 19.8968V20.6421C24.6793 20.6836 24.7207 20.7043 24.7621 20.725C24.9277 20.7664 25.0934 20.8285 25.2383 20.9113C25.7352 21.1804 26.1079 21.6773 26.2321 22.3813C26.2321 22.4434 26.2114 22.4848 26.1907 22.5262C26.1493 22.5676 26.0871 22.5883 26.0457 22.5883H25.3625C25.2797 22.5883 25.2176 22.5469 25.1969 22.4641C24.907 21.5117 23.1472 21.4289 23.1472 22.5883C23.1472 23.168 23.7269 23.3958 24.3894 23.6442C25.259 23.9548 26.2528 24.3067 26.2528 25.5904C26.2528 26.5842 25.5696 27.2674 24.7414 27.5159C24.7207 27.5366 24.6793 27.5573 24.6793 27.5987V28.3647C24.6793 28.4682 24.5965 28.551 24.4929 28.551H23.7683C23.6648 28.551 23.582 28.4682 23.582 28.3647V27.6401C23.582 27.5987 23.5613 27.5573 23.5199 27.5573C23.3542 27.4951 23.1886 27.433 23.0437 27.3502C22.5468 27.0811 22.1741 26.5842 22.0499 25.9009C22.0292 25.8388 22.0499 25.7767 22.0913 25.7353C22.1327 25.6939 22.1741 25.6732 22.2362 25.6732H22.8987C22.9816 25.6732 23.0437 25.7353 23.0851 25.8181C23.3749 26.7705 25.1141 26.8326 25.1141 25.6732C25.1141 25.0521 24.4722 24.845 23.7476 24.5966C22.9194 24.286 22.0085 23.8927 22.0085 22.6918Z" fill="white"/>
</g>
<defs>
<clipPath id="clip0_492_1305">
<rect width="30" height="30" fill="white"/>
</clipPath>
</defs>
</svg>
