<svg width="30" height="32" viewBox="0 0 30 32" fill="none" xmlns="http://www.w3.org/2000/svg">
<path d="M11.25 14.0621C6.6 14.0621 2.8125 17.8496 2.8125 22.4996C2.8125 23.9809 3.19687 25.0777 3.975 25.8465C5.3625 27.2246 7.64062 27.2059 10.2656 27.1871H11.25H12.2344C12.5437 27.1871 12.8531 27.1871 13.1625 27.1871C15.3937 27.1871 17.3062 27.0559 18.5344 25.8371C19.3125 25.059 19.6969 23.9621 19.6969 22.4902C19.6969 17.8402 15.9094 14.0527 11.2594 14.0527L11.25 14.0621Z" fill="white"/>
<path d="M11.25 13.125C13.8388 13.125 15.9375 11.0263 15.9375 8.4375C15.9375 5.84867 13.8388 3.75 11.25 3.75C8.66117 3.75 6.5625 5.84867 6.5625 8.4375C6.5625 11.0263 8.66117 13.125 11.25 13.125Z" fill="white"/>
<path d="M20.625 15.9375C22.6961 15.9375 24.375 14.2586 24.375 12.1875C24.375 10.1164 22.6961 8.4375 20.625 8.4375C18.5539 8.4375 16.875 10.1164 16.875 12.1875C16.875 14.2586 18.5539 15.9375 20.625 15.9375Z" fill="white"/>
<path d="M27.1873 23.4375C27.1873 24.6094 26.8779 25.4906 26.2498 26.1094C25.1342 27.2156 23.3811 27.2063 21.3561 27.1875H19.8467C20.9811 26.0531 21.5623 24.4781 21.5623 22.5C21.5623 20.5219 20.9623 18.5344 19.9217 16.9219C20.1561 16.8844 20.3904 16.875 20.6248 16.875C24.2436 16.875 27.1873 19.8188 27.1873 23.4375Z" fill="white"/>
</svg>
