<svg width="30" height="30" viewBox="0 0 30 30" fill="none" xmlns="http://www.w3.org/2000/svg">
<g clip-path="url(#clip0_492_1311)">
<g clip-path="url(#clip1_492_1311)">
<path d="M14.3177 17.1359C14.3177 15.9996 14.545 14.9541 14.9541 13.9541H4.22683C2.13592 13.9541 0.454102 15.6814 0.454102 17.7268V28.5905C0.454102 28.8632 0.63592 29.045 0.908647 29.045H23.9996C24.2268 29.045 24.4541 28.8632 24.4541 28.5905V24.9541C23.7723 25.1359 23.0905 25.2268 22.3632 25.2268C17.9541 25.2268 14.3177 21.5905 14.3177 17.1359ZM12.4541 12.0905C15.545 12.0905 18.045 9.59046 18.045 6.54501C18.045 3.4541 15.545 0.954102 12.4541 0.954102C9.36319 0.954102 6.90865 3.4541 6.90865 6.49956C6.90865 9.59047 9.40865 12.0905 12.4541 12.0905Z" fill="white"/>
<path d="M22.3635 9.9541C18.4089 9.9541 15.1816 13.1814 15.1816 17.1359C15.1816 21.0905 18.4089 24.3177 22.3635 24.3177C26.318 24.3177 29.5453 21.0905 29.5453 17.1359C29.5453 13.1814 26.318 9.9541 22.3635 9.9541ZM22.3635 16.6814C23.4998 16.6814 24.4089 17.5905 24.4089 18.7268C24.4089 19.6814 23.7271 20.4996 22.818 20.7268V21.2268C22.818 21.4996 22.6362 21.6814 22.3635 21.6814C22.0907 21.6814 21.9089 21.4996 21.9089 21.2268V20.7268C20.9998 20.4996 20.318 19.7268 20.318 18.7268C20.318 18.4541 20.4998 18.2723 20.7725 18.2723C21.0453 18.2723 21.2271 18.4541 21.2271 18.7268C21.2271 19.3632 21.7271 19.8632 22.3635 19.8632C22.9998 19.8632 23.4998 19.3632 23.4998 18.7268C23.4998 18.0905 22.9998 17.5905 22.3635 17.5905C21.2271 17.5905 20.318 16.6814 20.318 15.545C20.318 14.5905 20.9998 13.7723 21.9089 13.545V13.045C21.9089 12.7723 22.0907 12.5905 22.3635 12.5905C22.6362 12.5905 22.818 12.7723 22.818 13.045V13.545C23.7271 13.7723 24.4089 14.545 24.4089 15.545C24.4089 15.8177 24.2271 15.9996 23.9544 15.9996C23.6816 15.9996 23.4998 15.8177 23.4998 15.545C23.4998 14.9086 22.9998 14.4086 22.3635 14.4086C21.7271 14.4086 21.2271 14.9086 21.2271 15.545C21.2271 16.1814 21.7725 16.6814 22.3635 16.6814Z" fill="white"/>
</g>
</g>
<defs>
<clipPath id="clip0_492_1311">
<rect width="30" height="30" fill="white"/>
</clipPath>
<clipPath id="clip1_492_1311">
<rect width="30" height="30" fill="white"/>
</clipPath>
</defs>
</svg>
