<svg width="30" height="30" viewBox="0 0 30 30" fill="none" xmlns="http://www.w3.org/2000/svg">
<g clip-path="url(#clip0_492_1320)">
<g clip-path="url(#clip1_492_1320)">
<path d="M21.5625 14.0625C20.0791 14.0625 18.6291 14.5024 17.3957 15.3265C16.1624 16.1506 15.2011 17.3219 14.6334 18.6924C14.0657 20.0628 13.9172 21.5708 14.2066 23.0257C14.496 24.4805 15.2103 25.8169 16.2592 26.8658C17.3081 27.9147 18.6445 28.629 20.0993 28.9184C21.5542 29.2078 23.0622 29.0593 24.4326 28.4916C25.8031 27.9239 26.9744 26.9626 27.7985 25.7293C28.6226 24.4959 29.0625 23.0459 29.0625 21.5625C29.0598 19.5742 28.2688 17.6681 26.8629 16.2621C25.4569 14.8562 23.5508 14.0652 21.5625 14.0625ZM21.5625 20.625C22.1506 20.624 22.7206 20.8281 23.1744 21.2023C23.6281 21.5764 23.9372 22.0971 24.0482 22.6746C24.1593 23.2521 24.0654 23.8503 23.7828 24.3661C23.5002 24.8818 23.0465 25.2828 22.5 25.5V25.9406C22.5 26.1893 22.4012 26.4277 22.2254 26.6035C22.0496 26.7794 21.8111 26.8781 21.5625 26.8781C21.3139 26.8781 21.0754 26.7794 20.8996 26.6035C20.7238 26.4277 20.625 26.1893 20.625 25.9406V25.5C20.1554 25.3136 19.7525 24.9906 19.4684 24.5728C19.1842 24.155 19.032 23.6615 19.0313 23.1563C19.0313 22.9076 19.13 22.6692 19.3058 22.4933C19.4817 22.3175 19.7201 22.2188 19.9688 22.2188C20.2174 22.2188 20.4559 22.3175 20.6317 22.4933C20.8075 22.6692 20.9063 22.9076 20.9063 23.1563C20.9063 23.286 20.9447 23.4129 21.0169 23.5208C21.089 23.6288 21.1915 23.7129 21.3114 23.7625C21.4313 23.8122 21.5632 23.8252 21.6905 23.7999C21.8178 23.7746 21.9348 23.7121 22.0265 23.6203C22.1183 23.5285 22.1808 23.4116 22.2061 23.2843C22.2315 23.157 22.2185 23.025 22.1688 22.9051C22.1191 22.7852 22.035 22.6827 21.9271 22.6106C21.8192 22.5385 21.6923 22.5 21.5625 22.5C20.9744 22.501 20.4044 22.2969 19.9506 21.9227C19.4969 21.5486 19.1878 21.0279 19.0768 20.4504C18.9657 19.8729 19.0596 19.2747 19.3422 18.7589C19.6248 18.2432 20.0785 17.8422 20.625 17.625V17.1844C20.625 16.9357 20.7238 16.6973 20.8996 16.5215C21.0754 16.3456 21.3139 16.2469 21.5625 16.2469C21.8111 16.2469 22.0496 16.3456 22.2254 16.5215C22.4012 16.6973 22.5 16.9357 22.5 17.1844V17.625C22.9696 17.8114 23.3725 18.1344 23.6567 18.5522C23.9408 18.97 24.093 19.4635 24.0938 19.9687C24.0938 20.2174 23.995 20.4558 23.8192 20.6317C23.6434 20.8075 23.4049 20.9062 23.1563 20.9062C22.9076 20.9062 22.6692 20.8075 22.4933 20.6317C22.3175 20.4558 22.2188 20.2174 22.2188 19.9687C22.2188 19.839 22.1803 19.7121 22.1082 19.6042C22.036 19.4962 21.9336 19.4121 21.8136 19.3625C21.6937 19.3128 21.5618 19.2998 21.4345 19.3251C21.3072 19.3504 21.1902 19.4129 21.0985 19.5047C21.0067 19.5965 20.9442 19.7134 20.9189 19.8407C20.8935 19.968 20.9065 20.1 20.9562 20.2199C21.0059 20.3398 21.09 20.4423 21.1979 20.5144C21.3058 20.5865 21.4327 20.625 21.5625 20.625Z" fill="white"/>
<path d="M24.375 0.9375H2.8125C2.31566 0.938942 1.83959 1.13695 1.48827 1.48827C1.13695 1.83959 0.938942 2.31566 0.9375 2.8125V27.1875C0.938942 27.6843 1.13695 28.1604 1.48827 28.5117C1.83959 28.8631 2.31566 29.0611 2.8125 29.0625H17.7095C16.6875 28.5382 15.7834 27.8107 15.0526 26.9245C14.3218 26.0383 13.7797 25.0122 13.4596 23.9091C13.1395 22.806 13.0481 21.6491 13.191 20.5094C13.3339 19.3697 13.7081 18.2712 14.2907 17.2813C14.8732 16.2914 15.6519 15.4309 16.5788 14.7526C17.5058 14.0743 18.5616 13.5925 19.6814 13.3367C20.8012 13.081 21.9614 13.0567 23.0909 13.2653C24.2204 13.474 25.2954 13.9111 26.25 14.55V2.8125C26.2486 2.31566 26.0506 1.83959 25.6992 1.48827C25.3479 1.13695 24.8718 0.938942 24.375 0.9375ZM11.231 21.3189L9.01085 24.8716C8.92658 25.0064 8.80938 25.1177 8.67028 25.1948C8.53119 25.2719 8.37476 25.3124 8.21572 25.3124C8.12825 25.3123 8.04122 25.3001 7.95708 25.2762C7.76141 25.2201 7.58933 25.1017 7.46686 24.9391C7.34439 24.7765 7.27817 24.5785 7.27822 24.3749V21.8457L6.02028 21.2168C5.91014 21.1617 5.81192 21.0855 5.73124 20.9925C5.65056 20.8995 5.58899 20.7915 5.55005 20.6747C5.51112 20.5579 5.49557 20.4345 5.50431 20.3117C5.51305 20.1889 5.54589 20.069 5.60097 19.9588L7.82112 15.5181C7.91561 15.3292 8.07109 15.1778 8.26237 15.0883C8.45366 14.9988 8.66954 14.9766 8.87506 15.0251C9.08059 15.0736 9.26371 15.1901 9.39478 15.3557C9.52585 15.5212 9.59719 15.7262 9.59724 15.9374V19.0213L10.9985 20.0724C11.1863 20.2133 11.3144 20.4195 11.3575 20.6503C11.4005 20.8811 11.3554 21.1197 11.231 21.3189ZM15 12.1875H6.5625C6.31386 12.1875 6.0754 12.0887 5.89959 11.9129C5.72377 11.7371 5.625 11.4986 5.625 11.25C5.625 11.0014 5.72377 10.7629 5.89959 10.5871C6.0754 10.4113 6.31386 10.3125 6.5625 10.3125H15C15.2486 10.3125 15.4871 10.4113 15.6629 10.5871C15.8387 10.7629 15.9375 11.0014 15.9375 11.25C15.9375 11.4986 15.8387 11.7371 15.6629 11.9129C15.4871 12.0887 15.2486 12.1875 15 12.1875ZM19.6875 7.5H6.5625C6.31386 7.5 6.0754 7.40123 5.89959 7.22541C5.72377 7.0496 5.625 6.81114 5.625 6.5625C5.625 6.31386 5.72377 6.0754 5.89959 5.89959C6.0754 5.72377 6.31386 5.625 6.5625 5.625H19.6875C19.9361 5.625 20.1746 5.72377 20.3504 5.89959C20.5262 6.0754 20.625 6.31386 20.625 6.5625C20.625 6.81114 20.5262 7.0496 20.3504 7.22541C20.1746 7.40123 19.9361 7.5 19.6875 7.5Z" fill="white"/>
</g>
</g>
<defs>
<clipPath id="clip0_492_1320">
<rect width="30" height="30" fill="white"/>
</clipPath>
<clipPath id="clip1_492_1320">
<rect width="30" height="30" fill="white"/>
</clipPath>
</defs>
</svg>
