<svg width="30" height="30" viewBox="0 0 30 30" fill="none" xmlns="http://www.w3.org/2000/svg">
    <path
        d="M26.7185 7.96875C26.8747 8.125 27.031 8.32589 27.1872 8.57143H19.2854V0.669643C19.531 0.825893 19.7319 0.982143 19.8881 1.13839L26.7185 7.96875ZM18.7497 10.7143H27.8569V28.3929C27.8569 28.8393 27.7006 29.2188 27.3881 29.5312C27.0756 29.8437 26.6961 30 26.2497 30H3.74972C3.30329 30 2.92383 29.8437 2.61133 29.5312C2.29883 29.2188 2.14258 28.8393 2.14258 28.3929V1.60714C2.14258 1.16071 2.29883 0.78125 2.61133 0.46875C2.92383 0.15625 3.30329 0 3.74972 0H17.1426V9.10714C17.1426 9.55357 17.2988 9.93304 17.6113 10.2455C17.9238 10.558 18.3033 10.7143 18.7497 10.7143ZM21.4283 23.0357V21.9643C21.4283 21.808 21.3781 21.6797 21.2776 21.5792C21.1772 21.4788 21.0488 21.4286 20.8926 21.4286H9.10686C8.95061 21.4286 8.82227 21.4788 8.72182 21.5792C8.62137 21.6797 8.57115 21.808 8.57115 21.9643V23.0357C8.57115 23.192 8.62137 23.3203 8.72182 23.4208C8.82227 23.5212 8.95061 23.5714 9.10686 23.5714H20.8926C21.0488 23.5714 21.1772 23.5212 21.2776 23.4208C21.3781 23.3203 21.4283 23.192 21.4283 23.0357ZM21.4283 18.75V17.6786C21.4283 17.5223 21.3781 17.394 21.2776 17.2935C21.1772 17.1931 21.0488 17.1429 20.8926 17.1429H9.10686C8.95061 17.1429 8.82227 17.1931 8.72182 17.2935C8.62137 17.394 8.57115 17.5223 8.57115 17.6786V18.75C8.57115 18.9062 8.62137 19.0346 8.72182 19.135C8.82227 19.2355 8.95061 19.2857 9.10686 19.2857H20.8926C21.0488 19.2857 21.1772 19.2355 21.2776 19.135C21.3781 19.0346 21.4283 18.9062 21.4283 18.75ZM21.4283 14.4643V13.3929C21.4283 13.2366 21.3781 13.1083 21.2776 13.0078C21.1772 12.9074 21.0488 12.8571 20.8926 12.8571H9.10686C8.95061 12.8571 8.82227 12.9074 8.72182 13.0078C8.62137 13.1083 8.57115 13.2366 8.57115 13.3929V14.4643C8.57115 14.6205 8.62137 14.7489 8.72182 14.8493C8.82227 14.9498 8.95061 15 9.10686 15H20.8926C21.0488 15 21.1772 14.9498 21.2776 14.8493C21.3781 14.7489 21.4283 14.6205 21.4283 14.4643Z"
        fill="white" />
</svg>