<svg width="20" height="20" viewBox="0 0 20 20" fill="none" xmlns="http://www.w3.org/2000/svg">
<path d="M10 19.7969C7.76497 19.7969 3.85928 15.3154 3.421 14.8046C3.334 14.7032 3.28987 14.5719 3.29794 14.4385L3.64169 8.59475C3.6494 8.46349 3.70697 8.34013 3.80263 8.2499C3.89828 8.15968 4.02479 8.10941 4.15628 8.10938H7.40128C7.53803 8.10937 7.66918 8.1637 7.76588 8.2604C7.86258 8.3571 7.9169 8.48825 7.9169 8.625C7.9169 8.76175 7.86258 8.8929 7.76588 8.9896C7.66918 9.0863 7.53803 9.14062 7.40128 9.14062H4.64234L4.33984 14.29C5.90631 16.0844 8.70925 18.7656 10 18.7656C11.6005 18.7656 14.9088 17.7124 15.345 16.6756C15.3856 16.5794 15.4698 16.379 15.1312 16.0321C15.0829 15.9839 15.0446 15.9266 15.0186 15.8634C14.9926 15.8003 14.9794 15.7326 14.9798 15.6644C14.9802 15.5961 14.9941 15.5286 15.0208 15.4658C15.0474 15.4029 15.0863 15.346 15.1351 15.2983C15.184 15.2506 15.2418 15.2131 15.3053 15.1879C15.3687 15.1627 15.4365 15.1504 15.5048 15.1516C15.5731 15.1529 15.6404 15.1676 15.7029 15.1951C15.7654 15.2226 15.8218 15.2622 15.8689 15.3116C16.5801 16.0393 16.4412 16.7292 16.2951 17.0758C15.5509 18.8433 11.4947 19.7969 10 19.7969Z" fill="#030030"/>
<path d="M15.0428 18.2466C14.9046 18.2466 14.7664 18.1916 14.6647 18.0816L10.9969 14.132C10.9039 14.0317 10.8545 13.8985 10.8597 13.7619C10.8649 13.6252 10.9241 13.4962 11.0244 13.4032C11.1247 13.3102 11.2578 13.2609 11.3944 13.266C11.5311 13.2712 11.6601 13.3304 11.7531 13.4307L15.4209 17.3804C15.4892 17.454 15.5344 17.5458 15.5512 17.6448C15.568 17.7437 15.5556 17.8453 15.5154 17.9373C15.4753 18.0292 15.4092 18.1075 15.3253 18.1624C15.2413 18.2174 15.1431 18.2467 15.0428 18.2466ZM13.3997 19.0716C13.2677 19.0716 13.1357 19.0211 13.0353 18.9204L9.63562 15.5207C9.58497 15.4735 9.54433 15.4166 9.51615 15.3533C9.48797 15.2901 9.47281 15.2218 9.47159 15.1526C9.47037 15.0833 9.48311 15.0146 9.50904 14.9504C9.53497 14.8862 9.57357 14.8278 9.62254 14.7789C9.6715 14.7299 9.72982 14.6913 9.79403 14.6654C9.85823 14.6394 9.927 14.6267 9.99623 14.6279C10.0655 14.6291 10.1337 14.6443 10.197 14.6725C10.2602 14.7007 10.3172 14.7413 10.3644 14.792L13.7641 18.1916C13.8361 18.2638 13.8851 18.3556 13.905 18.4555C13.9248 18.5555 13.9146 18.6591 13.8756 18.7533C13.8366 18.8474 13.7706 18.9279 13.6859 18.9846C13.6012 19.0413 13.5016 19.0716 13.3997 19.0716ZM11.5984 19.5941C11.4798 19.5941 11.3602 19.5536 11.2633 19.4704L8.28984 16.9232C8.23838 16.8792 8.19609 16.8255 8.16539 16.7651C8.13469 16.7048 8.11618 16.6389 8.11091 16.5714C8.10564 16.5039 8.11373 16.436 8.1347 16.3716C8.15567 16.3073 8.18911 16.2476 8.23313 16.1962C8.32201 16.0922 8.44855 16.0279 8.58489 16.0172C8.6524 16.012 8.72029 16.0201 8.78468 16.041C8.84907 16.062 8.90869 16.0954 8.96016 16.1395L11.9339 18.6866C12.0141 18.7552 12.0713 18.8467 12.0978 18.9487C12.1244 19.0508 12.119 19.1586 12.0824 19.2575C12.0458 19.3564 11.9797 19.4417 11.8931 19.5019C11.8065 19.5621 11.7036 19.5943 11.5981 19.5941H11.5984ZM19.2812 15.1563C19.2717 15.1563 19.2622 15.156 19.2527 15.1556L16.159 14.9838C16.0913 14.98 16.0251 14.963 15.9641 14.9337C15.903 14.9043 15.8483 14.8633 15.8032 14.8128C15.758 14.7623 15.7232 14.7035 15.7008 14.6395C15.6784 14.5756 15.6688 14.5079 15.6726 14.4403C15.6887 14.1564 15.9228 13.9436 16.216 13.9539L18.7656 14.0955V8.16239L16.5055 8.38308C16.4647 8.38883 16.4273 8.40923 16.4004 8.44048C16.3736 8.47172 16.359 8.51168 16.3594 8.55289V8.62508C16.3594 8.76183 16.305 8.89298 16.2084 8.98968C16.1117 9.08638 15.9805 9.1407 15.8438 9.1407C15.707 9.1407 15.5758 9.08638 15.4791 8.98968C15.3824 8.89298 15.3281 8.76183 15.3281 8.62508V8.55289C15.328 8.25675 15.4371 7.97097 15.6346 7.75034C15.8322 7.52971 16.1042 7.38976 16.3986 7.35733L19.2311 7.08061C19.3027 7.07355 19.375 7.08157 19.4433 7.10416C19.5116 7.12674 19.5745 7.16339 19.6278 7.21174C19.6811 7.26009 19.7237 7.31907 19.7528 7.38488C19.7819 7.45068 19.7969 7.52186 19.7969 7.59383V14.6407C19.7966 14.7774 19.7422 14.9084 19.6455 15.005C19.5489 15.1016 19.4179 15.1561 19.2812 15.1563ZM0.71875 15.1563C0.582081 15.1561 0.451089 15.1016 0.354449 15.005C0.25781 14.9084 0.203398 14.7774 0.203125 14.6407V7.59383C0.203119 7.52188 0.218171 7.45073 0.247312 7.38494C0.276453 7.31916 0.319039 7.2602 0.372331 7.21187C0.425622 7.16353 0.488441 7.12688 0.556746 7.10427C0.625051 7.08167 0.697331 7.07361 0.768937 7.08061L3.59456 7.35664C3.89016 7.3878 4.16377 7.52725 4.36268 7.74812C4.56159 7.96899 4.67173 8.25565 4.67188 8.55289V8.62508C4.67188 8.76183 4.61755 8.89298 4.52085 8.98968C4.42415 9.08638 4.293 9.1407 4.15625 9.1407C4.0195 9.1407 3.88835 9.08638 3.79165 8.98968C3.69495 8.89298 3.64062 8.76183 3.64062 8.62508V8.55289C3.6407 8.51065 3.62516 8.46987 3.59699 8.43839C3.56881 8.40692 3.52999 8.38697 3.488 8.38239L1.23438 8.16239V14.0955L3.78397 13.9539C4.07237 13.9432 4.31128 14.1564 4.32744 14.4403C4.3312 14.5079 4.3216 14.5756 4.29919 14.6395C4.27678 14.7035 4.24199 14.7623 4.19682 14.8128C4.15165 14.8633 4.09698 14.9043 4.03593 14.9337C3.97489 14.963 3.90866 14.98 3.84103 14.9838L0.747281 15.1556C0.737776 15.156 0.728264 15.1563 0.71875 15.1563Z" fill="#030030"/>
<path d="M15.5 16.1875C15.3487 16.1875 15.204 16.1212 15.1057 16.0039L11.6723 11.9274L10.3351 12.905C9.93849 13.1938 9.45813 13.3445 8.96763 13.3341C8.47714 13.3238 8.00358 13.1529 7.6195 12.8476L7.50847 12.7582C7.37909 12.6543 7.27256 12.5248 7.19555 12.3778C7.11854 12.2309 7.0727 12.0696 7.06091 11.904C7.0496 11.7383 7.07261 11.572 7.12851 11.4155C7.1844 11.2591 7.27197 11.1159 7.38575 10.9948L9.16741 9.1035C9.21381 9.05421 9.26947 9.01453 9.33121 8.98675C9.39295 8.95897 9.45955 8.94361 9.52722 8.94157C9.59489 8.93953 9.66231 8.95083 9.72561 8.97484C9.78891 8.99885 9.84686 9.03509 9.89616 9.0815C9.94545 9.12791 9.98512 9.18357 10.0129 9.2453C10.0407 9.30704 10.056 9.37365 10.0581 9.44132C10.0601 9.50899 10.0488 9.5764 10.0248 9.6397C10.0008 9.703 9.96456 9.76096 9.91816 9.81025L8.13616 11.7019C8.11976 11.7191 8.10715 11.7396 8.09916 11.7619C8.09117 11.7843 8.08796 11.8081 8.08975 11.8318C8.09133 11.8555 8.09783 11.8786 8.10884 11.8996C8.11985 11.9206 8.13513 11.9391 8.15369 11.9539L8.26369 12.0422C8.47071 12.2063 8.72572 12.2981 8.98981 12.3037C9.2539 12.3093 9.51257 12.2283 9.72634 12.0732L11.4527 10.8109C11.5581 10.7339 11.6889 10.6997 11.8185 10.7154C11.9481 10.731 12.067 10.7952 12.1512 10.8951L15.4188 14.775L15.6639 14.346L15.3577 9.14062H14.8125C14.6757 9.14062 14.5446 9.0863 14.4479 8.9896C14.3512 8.8929 14.2968 8.76175 14.2968 8.625C14.2968 8.48825 14.3512 8.3571 14.4479 8.2604C14.5446 8.1637 14.6757 8.10938 14.8125 8.10938H15.8437C15.9752 8.10941 16.1017 8.15968 16.1974 8.2499C16.293 8.34013 16.3506 8.46349 16.3583 8.59475L16.7021 14.4385C16.7083 14.5382 16.6849 14.6379 16.6354 14.7245L15.9479 15.9276C15.9027 16.0065 15.8375 16.0721 15.7588 16.1177C15.6802 16.1634 15.5909 16.1874 15.5 16.1875Z" fill="#030030"/>
<path d="M14.3811 13.1203C13.2983 13.1203 12.277 12.6452 11.5792 11.8175C11.4911 11.7128 11.4481 11.5775 11.4597 11.4412C11.4713 11.3048 11.5366 11.1787 11.6411 11.0904C11.7458 11.0024 11.8811 10.9595 12.0174 10.9711C12.1537 10.9827 12.2798 11.0479 12.3681 11.1523C12.6149 11.446 12.923 11.682 13.2708 11.8439C13.6186 12.0057 13.9976 12.0894 14.3811 12.089C14.5179 12.089 14.649 12.1434 14.7457 12.2401C14.8424 12.3368 14.8968 12.4679 14.8968 12.6047C14.8968 12.7414 14.8424 12.8726 14.7457 12.9693C14.649 13.066 14.5179 13.1203 14.3811 13.1203Z" fill="#030030"/>
<path d="M2.26562 13.4375C2.5504 13.4375 2.78125 13.2066 2.78125 12.9219C2.78125 12.6371 2.5504 12.4062 2.26562 12.4062C1.98085 12.4062 1.75 12.6371 1.75 12.9219C1.75 13.2066 1.98085 13.4375 2.26562 13.4375Z" fill="#030030"/>
<path d="M17.7344 13.4375C18.0191 13.4375 18.25 13.2066 18.25 12.9219C18.25 12.6371 18.0191 12.4062 17.7344 12.4062C17.4496 12.4062 17.2188 12.6371 17.2188 12.9219C17.2188 13.2066 17.4496 13.4375 17.7344 13.4375Z" fill="#030030"/>
<path d="M9.99999 0.203125C7.30018 0.203125 5.10327 2.39969 5.10327 5.09984C5.10327 7.8 7.29983 9.99656 9.99999 9.99656C12.7001 9.99656 14.8967 7.8 14.8967 5.10019C14.8967 2.40038 12.7001 0.203125 9.99999 0.203125ZM12.3351 4.11466L9.67859 6.80897C9.62689 6.86136 9.56458 6.90208 9.49584 6.92839C9.4271 6.9547 9.35352 6.96599 9.28005 6.96149C9.20659 6.957 9.13493 6.93683 9.06991 6.90234C9.00489 6.86785 8.94801 6.81984 8.90308 6.76153L7.62365 5.09847C7.58151 5.04489 7.55041 4.98349 7.53215 4.91782C7.51389 4.85215 7.50883 4.78351 7.51727 4.71587C7.52571 4.64823 7.54747 4.58293 7.5813 4.52376C7.61514 4.46459 7.66037 4.41271 7.71438 4.37113C7.76839 4.32954 7.83011 4.29908 7.89597 4.28151C7.96183 4.26393 8.03052 4.25959 8.09806 4.26873C8.16561 4.27786 8.23068 4.30031 8.2895 4.33475C8.34832 4.3692 8.39972 4.41497 8.44074 4.46941L9.35958 5.66394L11.6008 3.39072C11.6481 3.34125 11.7047 3.30168 11.7674 3.27431C11.8301 3.24694 11.8976 3.23232 11.966 3.23129C12.0344 3.23027 12.1023 3.24286 12.1658 3.26833C12.2292 3.29381 12.287 3.33166 12.3357 3.37969C12.3844 3.42771 12.4231 3.48495 12.4495 3.54806C12.4758 3.61117 12.4894 3.6789 12.4893 3.74731C12.4893 3.81571 12.4756 3.88341 12.4491 3.94648C12.4226 4.00955 12.3839 4.06672 12.3351 4.11466Z" fill="#030030"/>
</svg>
