<svg width="30" height="30" viewBox="0 0 30 30" fill="none" xmlns="http://www.w3.org/2000/svg">
<g clip-path="url(#clip0_495_269)">
<path d="M8.3999 3.90039V11.1004H14.3999V15.0004H5.3999C5.38111 14.9995 5.36229 14.9995 5.3435 15.0004C5.19434 15.0145 5.05584 15.0839 4.95525 15.1949C4.85465 15.3059 4.79924 15.4506 4.7999 15.6004V20.1004H2.3999V26.1004H8.3999V20.1004H5.9999V16.2004H14.3999V20.1004H11.9999V26.1004H17.9999V20.1004H15.5999V16.2004H23.9999V20.1004H21.5999V26.1004H27.5999V20.1004H25.1999V15.6004C25.1999 15.4413 25.1367 15.2886 25.0242 15.1761C24.9116 15.0636 24.759 15.0004 24.5999 15.0004H15.5999V11.1004H21.5999V3.90039H8.3999Z" fill="white"/>
</g>
<defs>
<clipPath id="clip0_495_269">
<rect width="30" height="30" fill="white"/>
</clipPath>
</defs>
</svg>
