<svg width="25" height="26" viewBox="0 0 25 26" fill="none" xmlns="http://www.w3.org/2000/svg">
<g clip-path="url(#clip0_820_1442)">
<path d="M16.4152 4.86099C16.4152 5.10762 16.2143 5.30942 15.9688 5.30942H13.9732C13.7277 5.30942 13.5268 5.10762 13.5268 4.86099C13.5268 4.61435 13.7277 4.41256 13.9732 4.41256H15.9688C16.2143 4.41256 16.4152 4.61435 16.4152 4.86099ZM10.9509 3.38565H15.9643C16.2098 3.38565 16.4107 3.18386 16.4107 2.93722C16.4107 2.69058 16.2098 2.48879 15.9643 2.48879H10.9509C10.7054 2.48879 10.5045 2.69058 10.5045 2.93722C10.5045 3.18386 10.7054 3.38565 10.9509 3.38565ZM7.67411 20.7578C7.5 20.5874 7.22321 20.5874 7.05357 20.7578L6.01786 21.7713L4.98214 20.7578C4.80804 20.5874 4.53125 20.5874 4.36161 20.7578L3.01339 22.0762C2.83482 22.2466 2.83482 22.5336 3.00446 22.7085C3.17411 22.8879 3.45982 22.8924 3.63393 22.7175L4.66964 21.704L5.70536 22.7175C5.87946 22.8879 6.15625 22.8879 6.32589 22.7175L7.36161 21.704L8.39732 22.7175C8.48214 22.8027 8.59821 22.8431 8.70982 22.8431C8.82143 22.8431 8.94196 22.7982 9.03125 22.7085C9.20536 22.5291 9.20089 22.2466 9.02232 22.0762L7.67411 20.7578ZM25 14.7803V20.148C25 23.5874 19.9196 25.87 19.7009 25.9641C19.6429 25.991 19.5804 26 19.5223 26C19.4643 26 19.4018 25.9865 19.3438 25.9641C19.308 25.9507 19.1429 25.8744 18.8929 25.7489C18.6518 25.9058 18.375 25.9955 18.0848 25.9955H1.49107C0.669643 25.9955 0 25.3229 0 24.4978V5.03587C0 4.62332 0.169643 4.22422 0.464286 3.93274L4.05357 0.434978C4.33929 0.156951 4.71875 0 5.11607 0H18.0848C18.9062 0 19.5759 0.672646 19.5759 1.49776V12.7982C19.6786 12.8117 19.7768 12.852 19.8482 12.9283C21.0446 14.1883 22.8214 14.3767 23.7768 14.3767C24.2098 14.3767 24.4911 14.3363 24.4955 14.3363C24.625 14.3184 24.7545 14.3587 24.8482 14.4439C24.9464 14.5291 25 14.6502 25 14.7803ZM1.54911 4.13004H4.23661V1.51121L1.54911 4.13004ZM17.7455 25.1031C16.183 24.1256 14.0446 22.3812 14.0446 20.1525V18.1435H3.59821C3.35268 18.1435 3.15179 17.9417 3.15179 17.6951V7.96413C3.15179 7.71749 3.35268 7.5157 3.59821 7.5157H15.9777C16.2232 7.5157 16.4241 7.71749 16.4241 7.96413V14.2825C17.1473 14.1659 17.9688 13.9148 18.683 13.3857V1.49776C18.683 1.16592 18.4152 0.896861 18.0848 0.896861H5.125V4.57399C5.125 4.82063 4.92411 5.02242 4.67857 5.02242H0.892857V5.03139V24.4978C0.892857 24.8296 1.16071 25.0987 1.49107 25.0987L17.7455 25.1031ZM14.0446 14.9013H13.0982V17.2466H14.0446V14.9013ZM4.04464 14.0045H12.2098V11.6592H4.04464V14.0045ZM13.1027 14.0045H15.5312V11.6592H13.1027V14.0045ZM15.5312 8.41256H13.1027V10.7578H15.5312V8.41256ZM12.2098 8.41256H4.04464V10.7578H12.2098V8.41256ZM4.04464 17.2466H12.2098V14.9013H4.04464V17.2466ZM24.1071 15.2646C23.1786 15.3049 21.0893 15.2242 19.5223 13.8565C17.9598 15.2287 15.8661 15.3094 14.9375 15.2646V20.148C14.9375 22.6816 18.6518 24.6368 19.5223 25.0583C20.3929 24.6368 24.1071 22.6816 24.1071 20.148V15.2646ZM22.067 17.1345L18.7991 20.704L17.3616 19.1928C17.192 19.0135 16.9107 19.009 16.7321 19.1794C16.5536 19.3498 16.5491 19.6323 16.7188 19.8117L18.4866 21.6682C18.5714 21.7578 18.6875 21.8072 18.808 21.8072C18.933 21.8072 19.0491 21.7534 19.1339 21.6637L22.7232 17.7399C22.8884 17.5561 22.8795 17.2735 22.6964 17.1076C22.5134 16.9417 22.2321 16.9507 22.067 17.1345Z" fill="white"/>
</g>
<defs>
<clipPath id="clip0_820_1442">
<rect width="25" height="26" fill="white"/>
</clipPath>
</defs>
</svg>
