<svg width="26" height="25" viewBox="0 0 26 25" fill="none" xmlns="http://www.w3.org/2000/svg">
<g clip-path="url(#clip0_820_1422)">
<path d="M18.1582 5.54942H7.84224C7.59588 5.54942 7.396 5.27722 7.396 4.94174V0.607674C7.396 0.272198 7.59588 0 7.84224 0H18.1582C18.4045 0 18.6044 0.272198 18.6044 0.607674V4.94174C18.6044 5.27722 18.4045 5.54942 18.1582 5.54942ZM8.28848 4.33407H17.7119V1.21535H8.28848V4.33407Z" fill="white"/>
<path d="M3.62894 25.0004H0.446241C0.199887 25.0004 0 24.7282 0 24.3927V8.83424C0 8.49876 0.199887 8.22656 0.446241 8.22656H3.62894C3.87529 8.22656 4.07518 8.49876 4.07518 8.83424V24.3927C4.07518 24.7282 3.87529 25.0004 3.62894 25.0004ZM0.892482 23.785H3.18269V9.44191H0.892482V23.785Z" fill="white"/>
<path d="M9.18438 12.1312H3.62886C3.3825 12.1312 3.18262 11.859 3.18262 11.5236C3.18262 11.1881 3.3825 10.9159 3.62886 10.9159H8.73813V4.94361C8.73813 4.60814 8.93802 4.33594 9.18438 4.33594C9.43073 4.33594 9.63062 4.60814 9.63062 4.94361V11.5236C9.63062 11.859 9.43073 12.1312 9.18438 12.1312Z" fill="white"/>
<path d="M25.5537 25.0004H22.371C22.1247 25.0004 21.9248 24.7282 21.9248 24.3927V8.83424C21.9248 8.49876 22.1247 8.22656 22.371 8.22656H25.5537C25.8001 8.22656 26 8.49876 26 8.83424V24.3927C26 24.7282 25.8001 25.0004 25.5537 25.0004ZM22.8173 23.785H25.1075V9.44191H22.8173V23.785Z" fill="white"/>
<path d="M22.3709 12.1312H16.8154C16.569 12.1312 16.3691 11.859 16.3691 11.5236V4.94361C16.3691 4.60814 16.569 4.33594 16.8154 4.33594C17.0617 4.33594 17.2616 4.60814 17.2616 4.94361V10.9159H22.3709C22.6173 10.9159 22.8171 11.1881 22.8171 11.5236C22.8171 11.859 22.6173 12.1312 22.3709 12.1312Z" fill="white"/>
<path d="M22.371 22.313H3.62886C3.3825 22.313 3.18262 22.0408 3.18262 21.7053C3.18262 21.3699 3.3825 21.0977 3.62886 21.0977H22.371C22.6173 21.0977 22.8172 21.3699 22.8172 21.7053C22.8172 22.0408 22.6173 22.313 22.371 22.313Z" fill="white"/>
<path d="M22.371 18.9028H3.62886C3.3825 18.9028 3.18262 18.6306 3.18262 18.2952C3.18262 17.9597 3.3825 17.6875 3.62886 17.6875H22.371C22.6173 17.6875 22.8172 17.9597 22.8172 18.2952C22.8172 18.6317 22.6173 18.9028 22.371 18.9028Z" fill="white"/>
<path d="M11.7659 15.5422H3.62886C3.3825 15.5422 3.18262 15.27 3.18262 14.9346C3.18262 14.5991 3.3825 14.3269 3.62886 14.3269H11.319V4.94361C11.319 4.60814 11.5188 4.33594 11.7652 4.33594C12.0116 4.33594 12.2114 4.60814 12.2114 4.94361V14.9346C12.2122 15.27 12.0123 15.5422 11.7659 15.5422Z" fill="white"/>
<path d="M22.3709 15.5422H14.2338C13.9875 15.5422 13.7876 15.27 13.7876 14.9346V4.94361C13.7876 4.60814 13.9875 4.33594 14.2338 4.33594C14.4802 4.33594 14.6801 4.60814 14.6801 4.94361V14.3259H22.3709C22.6173 14.3259 22.8172 14.5981 22.8172 14.9336C22.8172 15.27 22.6173 15.5422 22.3709 15.5422Z" fill="white"/>
</g>
<defs>
<clipPath id="clip0_820_1422">
<rect width="26" height="25" fill="white"/>
</clipPath>
</defs>
</svg>
