<svg width="26" height="24" viewBox="0 0 26 24" fill="none" xmlns="http://www.w3.org/2000/svg">
<path d="M6.3999 0.900391V8.10039H12.3999V12.0004H3.3999C3.38111 11.9995 3.36229 11.9995 3.3435 12.0004C3.19434 12.0145 3.05584 12.0839 2.95525 12.1949C2.85465 12.3059 2.79924 12.4506 2.7999 12.6004V17.1004H0.399902V23.1004H6.3999V17.1004H3.9999V13.2004H12.3999V17.1004H9.9999V23.1004H15.9999V17.1004H13.5999V13.2004H21.9999V17.1004H19.5999V23.1004H25.5999V17.1004H23.1999V12.6004C23.1999 12.4413 23.1367 12.2886 23.0242 12.1761C22.9116 12.0636 22.759 12.0004 22.5999 12.0004H13.5999V8.10039H19.5999V0.900391H6.3999Z" fill="white"/>
</svg>
