<?xml version="1.0" encoding="utf-8"?><svg xmlns="http://www.w3.org/2000/svg" width="383.3" height="201.5" xmlns:v="https://vecta.io/nano"><path d="M42.2 160.9c-8.5 0-15.4-2-20.6-6.2-5.1-4.2-7.7-11.6-7.7-22.2V97H0V79.4h7.9c3.7 0 7-2.2 8.4-5.6l7-16.3H35v21.8h21.5V97H35v35.6c0 4 .8 6.7 2.5 8.1 1.8 1.5 4.6 2.2 8.8 2.2h10.2v17.9H42.2zm50.1 0L62.4 79.4h22l20.7 61.6 20.7-61.6h22l-30 81.5zm88.7-14.5c6 0 10.7-1.9 14.1-5.9 3.3-3.9 5.5-8.8 6.3-14.6h-17.9c-5.6 0-9.6 1-12 3.1-2.4 2-3.6 4.5-3.6 7.5 0 3.1 1.2 5.6 3.6 7.4 2.4 1.7 5.6 2.5 9.5 2.5h0zm-4.7 16.4c-7 0-12.8-1.1-17.3-3.3-4.4-2.2-7.8-5.2-10-9-2.1-3.7-3.2-7.8-3.2-12.3 0-7.5 3-13.7 8.8-18.3 5.9-4.7 14.8-7.1 26.7-7.1h20.6v-1.9c0-5.6-1.6-9.7-4.7-12.3s-7.1-4-11.8-4c-4.3 0-8 1-11.1 3.1-3.2 2-5.2 5-5.9 9h-20.6c.6-5.9 2.5-11.1 6-15.5 3.4-4.4 7.9-7.8 13.3-10.1 5.5-2.3 11.7-3.5 18.4-3.5 11.6 0 20.7 2.9 27.4 8.7s10.1 14 10.1 24.6V161h-18l-1.5-10.1c-.2-1-1.5-1.3-2.1-.5-2.2 3.2-5.1 6-8.5 8.2-4.3 2.8-9.9 4.2-16.6 4.2h0zm60.2-1.9V79.4h18.7l1.9 15.3c3-5.3 7-9.4 12.1-12.6 5.1-3.1 10.3-4.5 18-2.7v20.2h-5.9c-4.6 0-8.7.7-12.3 2.1-3.6 1.5-6.4 3.9-8.4 7.4s-3.1 8.4-3.1 14.6v37.1h-21zM296 79.4h21v81.5h-21zm72.9 81.5c-8.6 0-15.5-2-20.6-6.2-5.2-4.2-7.7-11.6-7.7-22.2V97h-14V79.4h7.9c3.7 0 7-2.2 8.4-5.6l7-16.3h11.7v21.8h21.5V97h-21.5v35.6c0 4 .8 6.7 2.5 8.1 1.7 1.5 4.6 2.2 8.8 2.2h10.2v17.9h-14.2z" fill="#1f2f58"/><path d="M152.4 198.2h11.3v3h-14.6v-19.6h14.4v3h-11.2v5.2H163v2.9h-10.7v5.5zm34.4-16.6h3.3v19.6h-3l-10.6-14v6.2 7.8h-3.3v-19.6h3l10.6 14v-5.8-8.2zm17 16.6h11.3v3h-14.6v-19.6h14.4v3h-11.2v5.2h10.7v2.9h-10.7v5.5zm33.8 3l-5.7-6.7h-4v6.7h-3.3v-19.6h9.2c2.1 0 3.8.6 5 1.8 1.3 1.2 1.9 2.7 1.9 4.7 0 1.6-.5 3-1.4 4.1s-2.1 1.8-3.7 2.2l6 6.9h-4zm-.1-13.2c0-1.1-.3-1.9-1-2.5s-1.6-.9-2.7-.9h-5.9v6.9h5.9c1.2 0 2.1-.3 2.7-.9.7-.6 1-1.5 1-2.6zm21.3 2h8.5v8.3c-2.1 2.1-4.8 3.2-8 3.2-3.1 0-5.5-.9-7.4-2.8-1.8-1.9-2.8-4.3-2.8-7.4 0-3 1-5.5 2.9-7.3 1.9-1.9 4.4-2.8 7.5-2.8 2.9 0 5.3 1 7.3 3l-2.1 2.1c-.7-.7-1.4-1.2-2.4-1.5a7.06 7.06 0 0 0-2.8-.6c-2.1 0-3.8.7-5.1 2s-2 3.1-2 5.2c0 2.2.6 3.9 1.9 5.2 1.2 1.3 2.9 1.9 5 1.9 1.9 0 3.6-.5 5-1.6v-4h-5.5V190zm34-8.4l-7.9 11.7v7.9h-3.2v-7.9l-7.7-11.7h3.9l5.4 8.6 5.6-8.6h3.9zm20 19.6v-19.6h3.3v16.5h10.3v3.1h-13.6zm22.1 0v-19.6h3.3v16.5h10.3v3.1h-13.6zm31.2-19.6c2.1 0 3.9.6 5.1 1.9 1.3 1.3 1.9 2.9 1.9 5s-.6 3.7-1.9 5-3 1.9-5.1 1.9h-5.8v5.9H357v-19.6h9.1zm-.1 10.7c1.2 0 2.2-.3 2.9-1s1.1-1.6 1.1-2.8-.4-2.1-1.1-2.8-1.7-1-2.9-1h-5.7v7.7h5.7zm16.8 8.6c-.4.4-.8.5-1.4.5s-1-.2-1.4-.5c-.4-.4-.5-.8-.5-1.3s.2-1 .5-1.3c.4-.4.8-.5 1.4-.5s1 .2 1.4.5c.4.4.5.8.5 1.3s-.2.9-.5 1.3z" fill="#f49a00"/><path d="M317 50.1a13.28 13.28 0 0 1-19.1 0c-.1-.1-.1-.1-.1-.2-5.2-5.4-5.1-14 .1-19.3 2.9-3 6.8-4.3 10.5-4 3.2.3 6.1 1.6 8.6 4 0 .1.1.1.1.1 4.4 4.6 5 11.6 1.9 16.8-.6.9-1.3 1.7-2 2.6h0zm9.9-29.3c-2.3-2.3-5-4.1-7.7-5.4-10.3-4.9-22.7-3.1-31.3 5.4-.3.3-.5.6-.8.7-10 10.8-9.6 27.9.8 38.2 10.8 10.7 28 10.7 38.9 0 .3-.3.5-.6.7-.8 4-4.2 6.2-9.3 7-14.5h0c1.4-8.4-1.2-17.3-7.6-23.6h0z" fill="#009a39"/><path d="M340.5 31.3c0 9.3-7.3 16.8-16.4 16.8-9 0-16.4-7.5-16.4-16.8s7.4-16.8 16.4-16.8c9.1-.1 16.4 7.5 16.4 16.8h0zm-16.1-22h-.6c-.7 0-1.4-.6-1.4-1.4V1.4c0-.7.6-1.4 1.4-1.4h.6c.7 0 1.4.6 1.4 1.4v6.5c0 .7-.6 1.4-1.4 1.4zm21.3 22.4v-.6c0-.8.6-1.4 1.4-1.4h6.2c.8 0 1.4.6 1.4 1.4v.6c0 .8-.6 1.4-1.4 1.4h-6.2c-.8 0-1.4-.6-1.4-1.4zm-6.3-16h0c-.7-.7-.7-1.8 0-2.4l4-4.1a1.63 1.63 0 0 1 2.4 0h0c.7.7.7 1.8 0 2.4l-4 4.1c-.7.7-1.8.7-2.4 0zm0 31.5h0c-.7.7-.7 1.8 0 2.4l4 4.1a1.63 1.63 0 0 0 2.4 0h0c.7-.7.7-1.8 0-2.4l-4-4.1c-.7-.7-1.8-.7-2.4 0z" fill="#f49a00"/></svg>